<svg id="Layer_1" data-name="Layer 1" xmlns="http://www.w3.org/2000/svg" viewBox="0 0 317.9 297.69"><defs><style>.cls-1{fill:#ea1d2d;}</style></defs><path class="cls-1" d="M215.37,448l-74.2-74.2a2,2,0,0,1-.6-1.4V254a2,2,0,0,1,2-2h26a2,2,0,0,1,2,2v105.9a2,2,0,0,0,.6,1.4l65.4,65.4a1.93,1.93,0,0,1,0,2.8l-18.4,18.4A1.86,1.86,0,0,1,215.37,448Z" transform="translate(-140.57 -150.88)"/><path class="cls-1" d="M456.37,324h-26a2,2,0,0,1-2-2V182.88a2,2,0,0,0-2-2h-95.9a2,2,0,0,1-2-2v-26a2,2,0,0,1,2-2h126a2,2,0,0,1,2,2V322A2.16,2.16,0,0,1,456.37,324Z" transform="translate(-140.57 -150.88)"/></svg>